<svg xmlns="http://www.w3.org/2000/svg" viewBox="0 0 86 76" role="img" aria-label="Colophon"><g transform="translate(-26,-10)"><rect x="32" y="22" width="12" height="58" rx="1.5" fill="#e8554e"/><rect x="32" y="29" width="12" height="2.5" fill="rgba(0,0,0,0.22)"/><rect x="32" y="69" width="12" height="2.5" fill="rgba(0,0,0,0.22)"/><rect x="47" y="16" width="13" height="64" rx="1.5" fill="#f2913d"/><rect x="47" y="23" width="13" height="2.5" fill="rgba(0,0,0,0.22)"/><rect x="47" y="69" width="13" height="2.5" fill="rgba(0,0,0,0.22)"/><rect x="63" y="24" width="11" height="56" rx="1.5" fill="#f4c542"/><rect x="63" y="31" width="11" height="2.5" fill="rgba(0,0,0,0.22)"/><rect x="63" y="69" width="11" height="2.5" fill="rgba(0,0,0,0.22)"/><rect x="78" y="18" width="13" height="62" rx="1.5" fill="#4caf6d"/><rect x="78" y="25" width="13" height="2.5" fill="rgba(0,0,0,0.22)"/><rect x="78" y="69" width="13" height="2.5" fill="rgba(0,0,0,0.22)"/><rect x="94" y="20" width="12" height="60" rx="1.5" fill="#3d8bd4"/><rect x="94" y="27" width="12" height="2.5" fill="rgba(0,0,0,0.22)"/><rect x="94" y="69" width="12" height="2.5" fill="rgba(0,0,0,0.22)"/></g></svg>