<svg xmlns="http://www.w3.org/2000/svg" viewBox="0 0 861.21 119.55" role="img" aria-label="Colophon"><g transform="translate(-44.55,-33.82) scale(1.7672)"><rect x="32" y="22" width="12" height="58" rx="1.5" fill="#e8554e"/><rect x="32" y="29" width="12" height="2.5" fill="rgba(0,0,0,0.22)"/><rect x="32" y="69" width="12" height="2.5" fill="rgba(0,0,0,0.22)"/><rect x="47" y="16" width="13" height="64" rx="1.5" fill="#f2913d"/><rect x="47" y="23" width="13" height="2.5" fill="rgba(0,0,0,0.22)"/><rect x="47" y="69" width="13" height="2.5" fill="rgba(0,0,0,0.22)"/><rect x="63" y="24" width="11" height="56" rx="1.5" fill="#f4c542"/><rect x="63" y="31" width="11" height="2.5" fill="rgba(0,0,0,0.22)"/><rect x="63" y="69" width="11" height="2.5" fill="rgba(0,0,0,0.22)"/><rect x="78" y="18" width="13" height="62" rx="1.5" fill="#4caf6d"/><rect x="78" y="25" width="13" height="2.5" fill="rgba(0,0,0,0.22)"/><rect x="78" y="69" width="13" height="2.5" fill="rgba(0,0,0,0.22)"/><rect x="94" y="20" width="12" height="60" rx="1.5" fill="#3d8bd4"/><rect x="94" y="27" width="12" height="2.5" fill="rgba(0,0,0,0.22)"/><rect x="94" y="69" width="12" height="2.5" fill="rgba(0,0,0,0.22)"/></g><g transform="translate(160.77,90.00) scale(0.12000,-0.12000)" fill="#1a1a1a"><path transform="translate(0.00,0)" d="M407 -15Q337 -15 272.0 9.0Q207 33 156.0 77.5Q105 122 75.5 184.5Q46 247 46 323Q46 396 77.0 458.0Q108 520 162.0 566.0Q216 612 285.5 637.5Q355 663 432 663Q471 663 498.0 660.0Q525 657 550.5 651.5Q576 646 610 637Q625 633 631.5 625.0Q638 617 639 603Q641 580 644.0 553.5Q647 527 648 488Q649 481 641.5 476.5Q634 472 625.5 474.0Q617 476 614 487Q604 525 591.0 552.5Q578 580 552 598Q527 615 491.5 623.5Q456 632 415 632Q357 632 307.5 608.5Q258 585 222.5 544.5Q187 504 167.0 453.0Q147 402 147 347Q147 286 166.5 227.0Q186 168 222.5 120.5Q259 73 309.5 44.5Q360 16 422 16Q494 16 541.0 49.0Q588 82 621 141Q628 154 641.5 154.0Q655 154 655 138Q655 130 651.0 112.5Q647 95 640.5 75.5Q634 56 628 41Q621 27 616.5 23.0Q612 19 596 14Q559 -1 507.5 -8.0Q456 -15 407 -15Z"/><path transform="translate(710.00,0)" d="M377 -14Q311 -14 251.0 9.5Q191 33 145.0 76.5Q99 120 72.0 180.5Q45 241 45 315Q45 383 67.0 445.5Q89 508 132.0 557.0Q175 606 239.0 635.0Q303 664 386 664Q452 664 512.0 640.5Q572 617 618.0 573.5Q664 530 691.0 469.5Q718 409 718 335Q718 268 696.0 205.0Q674 142 631.0 93.0Q588 44 524.0 15.0Q460 -14 377 -14ZM392 26Q469 26 520.0 58.5Q571 91 596.5 149.5Q622 208 622 286Q622 355 606.0 416.0Q590 477 558.5 523.5Q527 570 480.0 596.0Q433 622 370 622Q295 622 244.0 590.0Q193 558 167.0 500.5Q141 443 141 365Q141 295 156.5 234.0Q172 173 203.5 126.0Q235 79 282.0 52.5Q329 26 392 26Z"/><path transform="translate(1473.00,0)" d="M55 -5Q42 -5 34.5 -1.5Q27 2 27 7Q27 16 36.5 19.5Q46 23 49 24Q88 32 109.0 47.5Q130 63 130 96V560Q130 584 125.0 595.5Q120 607 107.0 612.5Q94 618 69 622Q36 628 36 642Q36 648 44.0 650.5Q52 653 65 653Q92 653 108.5 652.0Q125 651 140.0 650.5Q155 650 177 650Q202 650 220.0 650.5Q238 651 257.0 652.0Q276 653 303 653Q316 653 324.0 650.5Q332 648 332 642Q332 635 324.0 630.0Q316 625 299 622Q262 615 236.0 605.5Q210 596 210 567V96Q210 65 224.0 50.0Q238 35 287 35H411Q438 35 458.5 43.5Q479 52 489 61Q509 78 518.5 91.5Q528 105 541 132Q543 138 549.5 150.0Q556 162 563 162Q569 162 572.0 156.0Q575 150 575 144Q575 143 574.5 141.5Q574 140 574 139Q567 113 561.5 92.0Q556 71 552.5 52.0Q549 33 547 12Q546 5 543.5 0.0Q541 -5 533 -5Q483 -5 437.0 -4.0Q391 -3 348.5 -2.5Q306 -2 267.0 -1.0Q228 0 190 0Q165 0 133.5 -1.0Q102 -2 78.5 -3.5Q55 -5 55 -5Z"/><path transform="translate(2057.00,0)" d="M377 -14Q311 -14 251.0 9.5Q191 33 145.0 76.5Q99 120 72.0 180.5Q45 241 45 315Q45 383 67.0 445.5Q89 508 132.0 557.0Q175 606 239.0 635.0Q303 664 386 664Q452 664 512.0 640.5Q572 617 618.0 573.5Q664 530 691.0 469.5Q718 409 718 335Q718 268 696.0 205.0Q674 142 631.0 93.0Q588 44 524.0 15.0Q460 -14 377 -14ZM392 26Q469 26 520.0 58.5Q571 91 596.5 149.5Q622 208 622 286Q622 355 606.0 416.0Q590 477 558.5 523.5Q527 570 480.0 596.0Q433 622 370 622Q295 622 244.0 590.0Q193 558 167.0 500.5Q141 443 141 365Q141 295 156.5 234.0Q172 173 203.5 126.0Q235 79 282.0 52.5Q329 26 392 26Z"/><path transform="translate(2820.00,0)" d="M53 -5Q40 -5 32.0 -2.5Q24 0 24 6Q24 18 57 24Q95 31 112.5 47.0Q130 63 130 100V522Q130 567 118.5 591.0Q107 615 69 622Q52 625 44.0 630.0Q36 635 36 642Q36 648 44.0 650.5Q52 653 65 653Q92 653 105.5 653.0Q119 653 131.0 652.5Q143 652 163 652Q183 652 203.5 653.5Q224 655 242.0 656.5Q260 658 274 658Q388 658 457.5 611.0Q527 564 527 480Q527 419 503.0 367.5Q479 316 429.5 285.0Q380 254 303 254Q281 254 269.5 260.5Q258 267 258 273Q258 277 263.5 282.0Q269 287 274 287Q279 287 289.5 286.0Q300 285 320 285Q380 285 410.5 335.0Q441 385 441 473Q441 553 394.0 591.5Q347 630 274 630Q246 630 228.0 620.5Q210 611 210 588V111Q210 75 225.0 53.0Q240 31 277 24Q294 21 302.0 17.0Q310 13 310 6Q310 0 302.0 -2.5Q294 -5 281 -5Q254 -5 239.5 -3.0Q225 -1 213.5 0.5Q202 2 183 2Q158 2 138.5 0.5Q119 -1 99.5 -3.0Q80 -5 53 -5Z"/><path transform="translate(3372.00,0)" d="M66 -5Q53 -5 45.0 -1.5Q37 2 37 8Q37 18 69 24Q107 31 118.5 47.0Q130 63 130 99V551Q130 586 122.5 600.5Q115 615 77 622Q44 628 44 640Q44 646 51.0 649.5Q58 653 73 653Q100 653 115.0 652.0Q130 651 143.0 650.5Q156 650 176 650Q197 650 210.5 650.5Q224 651 239.5 652.0Q255 653 282 653Q311 653 311 640Q311 633 303.0 629.0Q295 625 278 622Q241 615 225.5 597.5Q210 580 210 551V354Q210 348 215.0 346.5Q220 345 224 345H595Q602 345 602 357V552Q602 579 588.0 597.0Q574 615 536 622Q519 625 511.0 629.0Q503 633 503 640Q503 653 532 653Q559 653 576.5 652.0Q594 651 610.0 650.5Q626 650 648 650Q666 650 676.0 650.5Q686 651 699.0 652.0Q712 653 739 653Q753 653 760.5 649.5Q768 646 768 640Q768 628 735 622Q698 615 690.0 598.0Q682 581 682 552V100Q682 63 691.5 47.0Q701 31 738 24Q770 18 770 8Q770 2 762.0 -1.5Q754 -5 741 -5Q714 -5 699.0 -3.5Q684 -2 671.0 -1.0Q658 0 637 0Q616 0 602.5 -1.0Q589 -2 573.0 -3.5Q557 -5 530 -5Q517 -5 509.0 -1.5Q501 2 501 8Q501 15 508.5 18.0Q516 21 533 24Q565 30 583.5 47.5Q602 65 602 97V292Q602 297 602.0 302.0Q602 307 597 307H215Q210 307 210 296V106Q210 75 233.0 52.5Q256 30 290 24Q307 21 314.5 18.0Q322 15 322 8Q322 2 314.0 -1.5Q306 -5 293 -5Q266 -5 248.5 -3.5Q231 -2 215.0 -1.0Q199 0 176 0Q155 0 140.5 -1.0Q126 -2 109.5 -3.5Q93 -5 66 -5Z"/><path transform="translate(4182.00,0)" d="M377 -14Q311 -14 251.0 9.5Q191 33 145.0 76.5Q99 120 72.0 180.5Q45 241 45 315Q45 383 67.0 445.5Q89 508 132.0 557.0Q175 606 239.0 635.0Q303 664 386 664Q452 664 512.0 640.5Q572 617 618.0 573.5Q664 530 691.0 469.5Q718 409 718 335Q718 268 696.0 205.0Q674 142 631.0 93.0Q588 44 524.0 15.0Q460 -14 377 -14ZM392 26Q469 26 520.0 58.5Q571 91 596.5 149.5Q622 208 622 286Q622 355 606.0 416.0Q590 477 558.5 523.5Q527 570 480.0 596.0Q433 622 370 622Q295 622 244.0 590.0Q193 558 167.0 500.5Q141 443 141 365Q141 295 156.5 234.0Q172 173 203.5 126.0Q235 79 282.0 52.5Q329 26 392 26Z"/><path transform="translate(4945.00,0)" d="M668 -17Q659 -17 632.5 -2.0Q606 13 582 46Q578 51 557.5 76.0Q537 101 505.5 138.5Q474 176 437.0 220.0Q400 264 363.0 308.0Q326 352 294.0 389.5Q262 427 240.5 452.5Q219 478 214 484Q207 493 202.0 496.5Q197 500 193 500Q188 500 186.0 492.5Q184 485 184 479Q183 430 182.0 366.0Q181 302 180.0 234.0Q179 166 179 104Q179 77 192.5 54.0Q206 31 243 24Q260 21 268.0 17.0Q276 13 276 6Q276 0 268.0 -2.5Q260 -5 247 -5Q220 -5 206.5 -3.5Q193 -2 182.5 -1.0Q172 0 153 0Q135 0 125.0 -1.0Q115 -2 102.0 -3.5Q89 -5 62 -5Q49 -5 41.0 -2.5Q33 0 33 6Q33 13 41.0 17.0Q49 21 66 25Q95 33 108.0 54.5Q121 76 124 107Q128 145 132.0 207.5Q136 270 139.0 347.5Q142 425 142 507Q142 560 114.5 583.0Q87 606 43 620Q39 622 25.5 628.5Q12 635 12 644Q12 653 21.0 655.5Q30 658 35 658Q64 657 82.0 656.5Q100 656 114.0 655.0Q128 654 145.0 653.5Q162 653 189 653Q198 653 203.0 648.0Q208 643 213 636Q217 630 239.5 602.5Q262 575 295.5 533.5Q329 492 369.0 443.5Q409 395 449.0 346.5Q489 298 523.0 256.5Q557 215 579.5 188.0Q602 161 606 156Q610 152 617.5 144.0Q625 136 631 136Q640 136 641 157Q641 171 641.5 210.5Q642 250 642.5 306.5Q643 363 643.0 429.0Q643 495 643 564Q642 584 622.0 600.0Q602 616 585 619Q568 622 554.0 627.0Q540 632 540 639Q540 645 554.0 647.5Q568 650 581 650Q591 650 600.5 650.0Q610 650 619.5 650.0Q629 650 638 650Q662 650 676.0 650.5Q690 651 706.5 652.0Q723 653 753 653Q766 653 774.0 650.5Q782 648 782 642Q782 628 749 622Q712 615 700.0 604.0Q688 593 686 568Q686 563 685.5 529.0Q685 495 685.0 443.0Q685 391 684.5 331.0Q684 271 684.0 211.5Q684 152 684 105Q684 81 685.5 61.5Q687 42 688.0 28.5Q689 15 689 8Q689 -8 682.5 -12.5Q676 -17 668 -17Z"/></g></svg>